<mxfile host="app.diagrams.net" agent="Mozilla/5.0 (Windows NT 10.0; Win64; x64) AppleWebKit/537.36 (KHTML, like Gecko) Chrome/134.0.0.0 Safari/537.36 Edg/134.0.0.0" version="26.0.14">
  <diagram name="Página-1" id="ksUYJmm2jA2pZJFerWgO">
    <mxGraphModel dx="1489" dy="807" grid="1" gridSize="10" guides="1" tooltips="1" connect="1" arrows="1" fold="1" page="1" pageScale="1" pageWidth="850" pageHeight="1100" math="0" shadow="0">
      <root>
        <mxCell id="0" />
        <mxCell id="1" parent="0" />
        <mxCell id="pnS57MfEbznod6Blx1aH-3" value="" style="edgeStyle=orthogonalEdgeStyle;rounded=0;orthogonalLoop=1;jettySize=auto;html=1;" edge="1" parent="1" source="pnS57MfEbznod6Blx1aH-1" target="pnS57MfEbznod6Blx1aH-2">
          <mxGeometry relative="1" as="geometry">
            <Array as="points">
              <mxPoint x="340" y="110" />
              <mxPoint x="340" y="110" />
            </Array>
          </mxGeometry>
        </mxCell>
        <mxCell id="pnS57MfEbznod6Blx1aH-1" value="Inicio" style="strokeWidth=2;html=1;shape=mxgraph.flowchart.start_1;whiteSpace=wrap;" vertex="1" parent="1">
          <mxGeometry x="240" y="30" width="200" height="60" as="geometry" />
        </mxCell>
        <mxCell id="pnS57MfEbznod6Blx1aH-5" value="" style="edgeStyle=orthogonalEdgeStyle;rounded=0;orthogonalLoop=1;jettySize=auto;html=1;" edge="1" parent="1" source="pnS57MfEbznod6Blx1aH-2" target="pnS57MfEbznod6Blx1aH-4">
          <mxGeometry relative="1" as="geometry" />
        </mxCell>
        <mxCell id="pnS57MfEbznod6Blx1aH-2" value="&quot;Ingresa un numero N&quot;" style="strokeWidth=2;html=1;shape=mxgraph.flowchart.document2;whiteSpace=wrap;size=0.25;" vertex="1" parent="1">
          <mxGeometry x="240" y="120" width="200" height="70" as="geometry" />
        </mxCell>
        <mxCell id="pnS57MfEbznod6Blx1aH-16" value="" style="edgeStyle=orthogonalEdgeStyle;rounded=0;orthogonalLoop=1;jettySize=auto;html=1;sourcePerimeterSpacing=0;targetPerimeterSpacing=0;endSize=5;" edge="1" parent="1" source="pnS57MfEbznod6Blx1aH-4" target="pnS57MfEbznod6Blx1aH-10">
          <mxGeometry relative="1" as="geometry" />
        </mxCell>
        <mxCell id="pnS57MfEbznod6Blx1aH-4" value="Leer N" style="shape=parallelogram;html=1;strokeWidth=2;perimeter=parallelogramPerimeter;whiteSpace=wrap;rounded=1;arcSize=0;size=0.11249999999999999;" vertex="1" parent="1">
          <mxGeometry x="240" y="220" width="200" height="60" as="geometry" />
        </mxCell>
        <mxCell id="pnS57MfEbznod6Blx1aH-21" value="" style="edgeStyle=orthogonalEdgeStyle;rounded=0;orthogonalLoop=1;jettySize=auto;html=1;" edge="1" parent="1" source="pnS57MfEbznod6Blx1aH-17" target="pnS57MfEbznod6Blx1aH-20">
          <mxGeometry relative="1" as="geometry" />
        </mxCell>
        <mxCell id="pnS57MfEbznod6Blx1aH-17" value="Suma = i + 1" style="rounded=1;whiteSpace=wrap;html=1;absoluteArcSize=1;arcSize=0;strokeWidth=2;" vertex="1" parent="1">
          <mxGeometry x="240" y="460" width="200" height="60" as="geometry" />
        </mxCell>
        <mxCell id="pnS57MfEbznod6Blx1aH-7" value="" style="edgeStyle=orthogonalEdgeStyle;rounded=0;orthogonalLoop=1;jettySize=auto;html=1;" edge="1" parent="1" source="pnS57MfEbznod6Blx1aH-10">
          <mxGeometry relative="1" as="geometry">
            <mxPoint x="338.1818181818182" y="460" as="targetPoint" />
          </mxGeometry>
        </mxCell>
        <mxCell id="pnS57MfEbznod6Blx1aH-8" value="SI" style="edgeLabel;html=1;align=center;verticalAlign=middle;resizable=0;points=[];" vertex="1" connectable="0" parent="pnS57MfEbznod6Blx1aH-7">
          <mxGeometry x="-0.5692" y="-2" relative="1" as="geometry">
            <mxPoint x="12" y="17" as="offset" />
          </mxGeometry>
        </mxCell>
        <mxCell id="pnS57MfEbznod6Blx1aH-9" style="edgeStyle=orthogonalEdgeStyle;rounded=0;orthogonalLoop=1;jettySize=auto;html=1;exitX=1;exitY=0.5;exitDx=0;exitDy=0;exitPerimeter=0;" edge="1" parent="1" source="pnS57MfEbznod6Blx1aH-10">
          <mxGeometry relative="1" as="geometry">
            <mxPoint x="406.3636363636364" y="357.3333333333333" as="targetPoint" />
          </mxGeometry>
        </mxCell>
        <mxCell id="pnS57MfEbznod6Blx1aH-10" value="i&amp;lt;N" style="strokeWidth=2;html=1;shape=mxgraph.flowchart.decision;whiteSpace=wrap;" vertex="1" parent="1">
          <mxGeometry x="270" y="320" width="136.36363636363635" height="74.66666666666667" as="geometry" />
        </mxCell>
        <mxCell id="pnS57MfEbznod6Blx1aH-11" value="" style="edgeStyle=orthogonalEdgeStyle;rounded=0;orthogonalLoop=1;jettySize=auto;html=1;exitX=1;exitY=0.5;exitDx=0;exitDy=0;exitPerimeter=0;strokeColor=none;" edge="1" parent="1" source="pnS57MfEbznod6Blx1aH-10">
          <mxGeometry relative="1" as="geometry">
            <mxPoint x="451.8181818181818" y="292" as="sourcePoint" />
            <mxPoint x="600" y="357" as="targetPoint" />
          </mxGeometry>
        </mxCell>
        <mxCell id="pnS57MfEbznod6Blx1aH-12" value="NO" style="edgeLabel;html=1;align=center;verticalAlign=middle;resizable=0;points=[];" vertex="1" connectable="0" parent="pnS57MfEbznod6Blx1aH-11">
          <mxGeometry x="-0.0615" relative="1" as="geometry">
            <mxPoint x="3" y="-10" as="offset" />
          </mxGeometry>
        </mxCell>
        <mxCell id="pnS57MfEbznod6Blx1aH-18" value="" style="endArrow=classic;html=1;rounded=0;" edge="1" parent="1">
          <mxGeometry width="50" height="50" relative="1" as="geometry">
            <mxPoint x="540" y="360" as="sourcePoint" />
            <mxPoint x="340" y="830" as="targetPoint" />
            <Array as="points">
              <mxPoint x="540" y="780" />
              <mxPoint x="430" y="780" />
              <mxPoint x="340" y="780" />
            </Array>
          </mxGeometry>
        </mxCell>
        <mxCell id="pnS57MfEbznod6Blx1aH-19" value="" style="endArrow=none;html=1;rounded=0;" edge="1" parent="1">
          <mxGeometry width="50" height="50" relative="1" as="geometry">
            <mxPoint x="406.36" y="360" as="sourcePoint" />
            <mxPoint x="540" y="360" as="targetPoint" />
          </mxGeometry>
        </mxCell>
        <mxCell id="pnS57MfEbznod6Blx1aH-20" value="&quot;La suma de los N números es, suma&quot;&amp;nbsp;" style="strokeWidth=2;html=1;shape=mxgraph.flowchart.document2;whiteSpace=wrap;size=0.25;" vertex="1" parent="1">
          <mxGeometry x="240" y="560" width="200" height="70" as="geometry" />
        </mxCell>
        <mxCell id="pnS57MfEbznod6Blx1aH-22" value="" style="endArrow=none;html=1;rounded=0;" edge="1" parent="1">
          <mxGeometry width="50" height="50" relative="1" as="geometry">
            <mxPoint x="340" y="300" as="sourcePoint" />
            <mxPoint x="340" y="620" as="targetPoint" />
            <Array as="points">
              <mxPoint x="170" y="300" />
              <mxPoint x="170" y="670" />
              <mxPoint x="170" y="700" />
              <mxPoint x="170" y="750" />
              <mxPoint x="340" y="750" />
            </Array>
          </mxGeometry>
        </mxCell>
        <mxCell id="pnS57MfEbznod6Blx1aH-23" value="FIN" style="strokeWidth=2;html=1;shape=mxgraph.flowchart.start_1;whiteSpace=wrap;" vertex="1" parent="1">
          <mxGeometry x="240" y="830" width="200" height="60" as="geometry" />
        </mxCell>
      </root>
    </mxGraphModel>
  </diagram>
</mxfile>
